<svg xmlns="http://www.w3.org/2000/svg" version="1.1" xmlns:xlink="http://www.w3.org/1999/xlink" xmlns:svgjs="http://svgjs.dev/svgjs" width="16px" height="16px"><svg version="1.1" id="SvgjsSvg1001" xmlns="http://www.w3.org/2000/svg" xmlns:xlink="http://www.w3.org/1999/xlink" x="0px" y="0px" width="16px" height="16px" viewBox="0 0 16 16" enable-background="new 0 0 16 16" xml:space="preserve">
<g>
	<path fill="#C8A92F" d="M15.431,8c0-4.104-3.327-7.431-7.431-7.431C3.896,0.569,0.569,3.896,0.569,8S3.896,15.431,8,15.431
		c0.173,0,0.343-0.014,0.513-0.026c-0.052-1.475-0.055-2.729-0.202-3.294c-0.253-0.977-1.339-0.94-2.352-1.882
		C4.946,9.288,5.517,2.05,6.176,2.194c0.532,0.117-0.18,7.202,1.014,7.166C7.769,9.343,7.66,3.389,8.022,3.389
		c0.9,0,0.326,5.638,0.9,5.682c0.945,0.072,0.547-4.849,1.343-4.74c0.218,0.029,0.326,2.279,0.109,4.415
		c-0.217,2.135-1.194,2.099-1.452,2.279c-0.243,0.17,0.201,1.55,0.585,4.252C12.889,14.58,15.431,11.587,15.431,8z"></path>
	<path fill="#FFFFFF" d="M8.923,11.024c0.258-0.181,1.234-0.145,1.452-2.279c0.217-2.136,0.109-4.386-0.109-4.415
		C9.47,4.222,9.868,9.143,8.923,9.07c-0.575-0.044,0-5.682-0.9-5.682c-0.362,0-0.254,5.954-0.833,5.972
		C5.996,9.396,6.708,2.312,6.176,2.194C5.517,2.05,4.946,9.288,5.959,10.229c1.013,0.941,2.099,0.905,2.352,1.882
		c0.146,0.566,0.149,1.819,0.202,3.294c0.337-0.023,0.671-0.061,0.995-0.128C9.124,12.575,8.68,11.195,8.923,11.024z"></path>
</g>
</svg><style>@media (prefers-color-scheme: light) { :root { filter: none; } }
@media (prefers-color-scheme: dark) { :root { filter: none; } }
</style></svg>