<?xml version="1.0" encoding="utf-8"?>
<!-- Generator: Adobe Illustrator 16.0.0, SVG Export Plug-In . SVG Version: 6.00 Build 0)  -->
<!DOCTYPE svg PUBLIC "-//W3C//DTD SVG 1.1//EN" "http://www.w3.org/Graphics/SVG/1.1/DTD/svg11.dtd">
<svg version="1.1" id="Layer_1" xmlns="http://www.w3.org/2000/svg" xmlns:xlink="http://www.w3.org/1999/xlink" x="0px" y="0px"
	 width="99.212px" height="99.212px" viewBox="0 0 99.212 99.212" enable-background="new 0 0 99.212 99.212" xml:space="preserve">
<g>
	<path fill="#231F20" d="M91.469,49.599c0,23.123-18.752,41.865-41.854,41.865c-23.12,0-41.872-18.742-41.872-41.865
		c0-23.105,18.752-41.851,41.872-41.851C72.717,7.749,91.469,26.494,91.469,49.599z"/>
</g>
<g>
	<path fill-rule="evenodd" clip-rule="evenodd" fill="#FFFFFF" d="M79.329,36.405c-1.714,1.864-3.25,3.535-4.784,5.204
		c6.873,6.697,5.482,16.253,0.731,21.225c-4.924,5.153-13.935,6.782-20.964,0.762c-1.555,1.684-3.112,3.373-4.711,5.105
		c-1.603-1.741-3.143-3.413-4.732-5.138c-3.745,3.211-8.004,4.519-12.824,3.659c-3.585-0.64-6.532-2.435-8.843-5.255
		c-4.556-5.561-4.682-14.353,1.501-20.307c-1.543-1.684-3.092-3.372-4.818-5.256c0.601,0,0.952,0,1.303,0
		c2.877,0,5.754,0.019,8.629-0.019c0.496-0.007,1.046-0.16,1.471-0.413c12.232-7.278,24.445-7.293,36.672,0.014
		c0.424,0.254,0.98,0.395,1.478,0.399C72.637,36.422,75.837,36.405,79.329,36.405z M64.477,42.633
		c-5.561-0.01-10.053,4.444-10.064,9.978c-0.011,5.534,4.476,10.049,10,10.065c5.526,0.017,10.053-4.479,10.065-10
		C74.491,47.131,70.022,42.644,64.477,42.633z M34.745,42.633c-5.544,0.004-10.042,4.496-10.036,10.02
		c0.007,5.512,4.535,10.028,10.054,10.025c5.527-0.004,10.025-4.512,10.021-10.044C44.778,47.088,40.302,42.629,34.745,42.633z
		 M49.598,50.959c1.141-6.673,5.169-10.711,11.084-13.344c-7.446-2.856-14.678-2.888-22.138,0.01
		C44.46,40.28,48.468,44.285,49.598,50.959z"/>
	<path fill-rule="evenodd" clip-rule="evenodd" fill="#FFFFFF" d="M64.42,47.39c2.951-0.009,5.291,2.315,5.287,5.255
		c-0.001,2.932-2.364,5.289-5.288,5.274c-2.878-0.014-5.226-2.354-5.245-5.225C59.156,49.751,61.482,47.4,64.42,47.39z"/>
	<path fill-rule="evenodd" clip-rule="evenodd" fill="#FFFFFF" d="M34.777,47.39c2.943,0.009,5.273,2.364,5.242,5.301
		c-0.03,2.894-2.354,5.212-5.239,5.224c-2.916,0.012-5.305-2.36-5.31-5.271C29.465,49.731,31.838,47.381,34.777,47.39z"/>
</g>
</svg>
